<?xml version="1.0" encoding="utf-8"?>
<!-- Svg Vector Icons : http://www.onlinewebfonts.com/icon -->
<!DOCTYPE svg PUBLIC "-//W3C//DTD SVG 1.1//EN" "http://www.w3.org/Graphics/SVG/1.1/DTD/svg11.dtd">
<svg version="1.1" xmlns="http://www.w3.org/2000/svg" xmlns:xlink="http://www.w3.org/1999/xlink" x="0px" y="0px" viewBox="0 0 256 256" enable-background="new 0 0 256 256" xml:space="preserve">
<metadata> Svg Vector Icons : http://www.onlinewebfonts.com/icon </metadata>
<g><g><g><path fill="#000000" d="M121,9.9C70.6,12.4,26,48.9,13.4,98c-3.1,11.9-3.4,15.1-3.4,30.1c0,11.2,0.2,14.8,1,19c4.7,25.9,15.5,46.7,33.4,64.6c17.7,17.7,38.8,28.7,63.6,33.1c7.9,1.4,24.6,1.9,32.6,1c27.6-3.2,51.6-14.7,71.1-34.2c17.9-17.9,28.7-38.7,33.4-64.6c0.8-4.2,1-7.9,1-19c0-15-0.4-18.2-3.4-30.1c-10-39.1-41.1-71.5-79.9-83.3C149,10.7,136.2,9.1,121,9.9z M139.4,25c43.9,4.7,80.3,37.5,89.9,80.8c6.1,27.4,0.5,56.8-15.2,80.1C184.9,229,128.7,244,82.1,221c-31.4-15.5-52.5-45.1-57-80c-5-38.8,13-77.8,45.8-99.5c12.9-8.5,30-14.7,44.8-16.4C121.7,24.4,133.4,24.3,139.4,25z"/><path fill="#000000" d="M117,76.4l-3.5,0.2l-0.1,18.3l-0.2,18.3l-18.3,0.2l-18.4,0.1l-0.1,3.5c0,1.9-0.1,8.5-0.1,14.5l-0.1,11.1l18.5,0.1l18.5,0.2l0.2,18.3l0.1,18.4H128h14.6l0.1-18.4l0.2-18.3l18.4-0.2l18.3-0.1v-14.6v-14.6l-18.3-0.1l-18.4-0.2l-0.2-18.5l-0.1-18.5h-11.1C125.4,76.2,118.9,76.3,117,76.4z"/></g></g></g>
</svg>