<?xml version="1.0" encoding="utf-8"?>
<!-- Svg Vector Icons : http://www.onlinewebfonts.com/icon -->
<!DOCTYPE svg PUBLIC "-//W3C//DTD SVG 1.1//EN" "http://www.w3.org/Graphics/SVG/1.1/DTD/svg11.dtd">
<svg version="1.1" xmlns="http://www.w3.org/2000/svg" xmlns:xlink="http://www.w3.org/1999/xlink" x="0px" y="0px" viewBox="0 0 256 256" enable-background="new 0 0 256 256" xml:space="preserve">
<metadata> Svg Vector Icons : http://www.onlinewebfonts.com/icon </metadata>
<g><g><path fill="#000000" d="M183.2,159.1c18.6-15.7,30.3-39.2,30.3-65.4c0-47.2-38.3-85.5-85.5-85.5c-47.2,0-85.5,38.3-85.5,85.5c0,26.2,11.8,49.7,30.3,65.4C39.6,176.6,15.6,209,10,247.7h25.6c6.4-34.8,31.9-62.7,65.2-72.8c8.5,2.8,17.7,4.4,27.1,4.4s18.6-1.5,27.1-4.4c33.3,10.1,58.8,38,65.2,72.8H246C240.4,209,216.4,176.6,183.2,159.1z M128,155.3c-34,0-61.5-27.6-61.5-61.6C66.5,59.6,94,32,128,32s61.5,27.6,61.5,61.6C189.5,127.7,162,155.3,128,155.3z"/></g></g>
</svg>