<?xml version="1.0" encoding="utf-8"?>
<!-- Svg Vector Icons : http://www.onlinewebfonts.com/icon -->
<!DOCTYPE svg PUBLIC "-//W3C//DTD SVG 1.1//EN" "http://www.w3.org/Graphics/SVG/1.1/DTD/svg11.dtd">
<svg version="1.1" xmlns="http://www.w3.org/2000/svg" xmlns:xlink="http://www.w3.org/1999/xlink" x="0px" y="0px" viewBox="0 0 256 256" enable-background="new 0 0 256 256" xml:space="preserve">
<metadata> Svg Vector Icons : http://www.onlinewebfonts.com/icon </metadata>
<g><g><g><path fill="#000000" d="M14.3,31.4c-3.1,1.4-4.3,3-4.3,6c0,2.2,0.2,2.7,1.4,4c2.4,2.5,2.7,2.6,12.3,2.8l8.9,0.2l19.5,68.1l19.4,68.1l-1.6,1.9c-2,2.3-4.6,7.6-5.3,11.1c-0.8,3.3-0.8,9.5,0,12.8c1,4.5,3.6,9.3,6.8,12.5c8.8,9,21.9,8.8,30.5-0.4c2.8-3,5.5-7.7,6.1-10.5l0.3-1.4l27.5-0.3c15.1-0.1,32.9-0.2,39.4-0.1l12,0.1l1.1,3.2c3.8,10.9,13.8,17.5,23.9,15.9c11.3-1.8,19.4-12.3,19.5-25.1c0-5.3-0.6-8-2.7-12.6c-4.3-9.1-14-14.6-22.9-13c-6.6,1.1-12.9,5.9-16.1,12.1l-1.6,3.1h-12.8c-7,0-25.3,0.1-40.4,0.3l-27.6,0.3l-1.6-3.4c-3-6.5-9.5-11.3-16.5-12.4l-3.3-0.5l-0.9-3.7l-1-3.7h63.2c61.4,0,63.3,0,65.2-0.9c1.4-0.6,2.2-1.4,2.7-2.5c0.4-0.8,5.4-16.7,11.2-35.1c5.8-18.5,12.6-40.4,15.3-48.9c4.7-15.1,4.8-15.2,4-16.8c-0.5-1-1.5-1.9-2.8-2.6l-2.1-1h-92.8c-51,0-92.8-0.1-92.8-0.2c0-0.1-1.2-4.6-2.6-9.9C51.1,43.4,50,38.2,50,37.1c0-1.6-0.3-2.3-1.7-3.8c-1-1.1-2.4-2.1-3.4-2.4c-1-0.3-7.5-0.5-15.2-0.5C17.5,30.5,16,30.6,14.3,31.4z M92.1,189.6c1.1,0.8,2.6,2.5,3.5,4c1.3,2.3,1.5,3,1.5,6.4c0,4.2-0.7,5.9-3.3,8.7c-6.9,7.3-17.9,2-17.9-8.7c0-4.9,2.4-9,6.5-11.3c1-0.6,2.3-0.7,4.6-0.6C89.6,188.2,90.4,188.5,92.1,189.6z M213.5,188.8c8.5,4.3,8.4,18.1,0,22.2c-8.3,4-17.2-5-14.5-14.7c0.8-2.8,3.3-6.1,5.6-7.3C207.2,187.7,211,187.6,213.5,188.8z"/></g></g></g>
</svg>